<?xml version="1.0" encoding="UTF-8" standalone="no"?>
<svg width="33px" height="33px" viewBox="0 0 33 33" version="1.1" xmlns="http://www.w3.org/2000/svg" xmlns:xlink="http://www.w3.org/1999/xlink">
    <!-- Generator: sketchtool 39.1 (31720) - http://www.bohemiancoding.com/sketch -->
    <title>B403399D-524C-45BC-85D0-006F6B45E2D0</title>
    <desc>Created with sketchtool.</desc>
    <defs>
        <path d="M26.3162934,29.763671 C23.573095,31.7972344 20.177008,33 16.5,33 C7.38730163,33 0,25.6126984 0,16.5 C0,7.38730163 7.38730163,0 16.5,0 C25.6126984,0 33,7.38730163 33,16.5 C33,20.1385915 31.8222356,23.5021013 29.8271372,26.2300991 L29.5712004,25.9868716 C29.3980493,25.8752056 29.2150955,25.8003336 29.0330526,25.7617686 C28.1344624,25.5715114 27.3101295,25.1190472 26.6671454,24.4506454 L20.2909158,17.8055905 C20.2389098,17.7514843 20.236741,17.6638606 20.2895712,17.6105957 C20.5043185,17.393861 20.5050559,17.040444 20.2917833,16.8227352 L18.7728506,15.2722519 C18.5055768,14.9994628 18.3165505,14.6510048 18.2587757,14.2697377 C17.6594264,10.3179933 21.7595775,7.93944622 22.7999156,7.82224566 C22.9995252,7.79975307 23.1459576,7.6241072 23.1386707,7.41923867 C23.1313838,7.21437014 22.9705944,7.04988201 22.769857,7.0420893 L22.3842575,7.01286664 C18.455002,6.71514976 13.0995053,11.6524503 10.5348994,14.7222904 C10.2370465,15.0788068 10.0653701,15.5257806 10.0505794,15.9940958 L10.0271138,16.7361741 C10.0271138,17.2347746 9.81496894,17.5567552 9.50054696,17.7750838 C9.13737201,18.0272399 8.6687102,18.0487142 8.25509067,17.8978633 C8.00841971,17.8079372 7.73147333,17.7487834 7.61050176,17.8722713 L6.18144109,19.3310574 C5.93949795,19.5780332 5.93954133,19.9784278 6.18144109,20.2253593 L9.30236873,23.4112044 C9.54431186,23.6581358 9.93650437,23.6581358 10.1784041,23.4112044 L11.6074648,21.9524182 C11.847673,21.7072136 11.8494079,21.3039852 11.6086793,21.0593562 C11.4233833,20.8710029 11.3365475,20.5989222 11.3945392,20.3387078 C11.4600348,20.0450643 11.5750207,19.7646597 11.7868185,19.5484563 C12.5312556,18.7885344 13.2383038,18.4016441 13.8743046,18.2413623 C14.4979869,18.0842684 15.1558918,18.2837352 15.6101099,18.7474456 L17.0082879,20.1746624 C17.2207798,20.3915742 17.565347,20.3915742 17.7778389,20.1746624 L17.8597734,20.0910236 C17.9129072,20.0367846 17.9988321,20.0362533 18.0526599,20.0897396 L24.5860354,26.5628236 C25.2484512,27.2215288 25.6879654,28.0707126 25.8842351,28.9932187 C25.9227517,29.1743992 25.9951438,29.3561553 26.1017584,29.5284361 L26.3162934,29.763671 Z" id="path-1"></path>
    </defs>
    <g id="Telas" stroke="none" stroke-width="1" fill="none" fill-rule="evenodd">
        <g id="Hotsite---Pedreiro-(MVP)" transform="translate(-24.000000, -29.000000)">
            <g id="Header" transform="translate(-16.000000, -135.000000)">
                <g id="Top">
                    <g id="Logo" transform="translate(40.000000, 159.000000)">
                        <g id="Icon" transform="translate(0.000000, 5.000000)">
                            <mask id="mask-2" fill="white">
                                <use xlink:href="#path-1"></use>
                            </mask>
                            <use id="Combined-Shape" fill="#1393F6" xlink:href="#path-1"></use>
                            <g id="Group-3" mask="url(#mask-2)">
                                <g transform="translate(6.000000, 7.000000)"></g>
                            </g>
                        </g>
                    </g>
                </g>
            </g>
        </g>
    </g>
</svg>
