<?xml version="1.0" encoding="UTF-8" standalone="no"?>
<svg xmlns="http://www.w3.org/2000/svg" width="87" height="18" viewBox="0 0 87 18">
  <path fill="#536E7B" d="M204.449956,31.181161 C204.90147,31.181161 205.301377,31.1424604 205.649689,31.0650578 C205.998,30.9876553 206.326956,30.8844535 206.636566,30.7554493 L206.636566,28.6172153 L205.243327,28.6172153 C205.036921,28.6172153 204.875668,28.5623893 204.759564,28.4527358 C204.64346,28.3430822 204.585409,28.2044048 204.585409,28.0366993 L204.585409,26.2370996 L209.597198,26.2370996 L209.597198,32.1873888 C209.235986,32.4518474 208.860267,32.6792139 208.470029,32.8694951 C208.079791,33.0597763 207.663759,33.2161916 207.221919,33.3387456 C206.78008,33.4612995 206.309222,33.5516011 205.809331,33.609653 C205.309439,33.6677049 204.772467,33.6967304 204.198399,33.6967304 C203.166365,33.6967304 202.211748,33.5145147 201.33452,33.1500778 C200.457291,32.785641 199.69779,32.2825321 199.055994,31.6407362 C198.414198,30.9989403 197.911089,30.2378269 197.546653,29.3573732 C197.182216,28.4769195 197,27.5206902 197,26.4886566 C197,25.4372723 197.174153,24.4713678 197.522464,23.5909141 C197.870776,22.7104605 198.369047,21.9509596 199.017293,21.3123888 C199.665539,20.673818 200.449228,20.1771592 201.368383,19.8223977 C202.287538,19.4676361 203.314719,19.290258 204.449956,19.290258 C205.036925,19.290258 205.588409,19.3386339 206.104426,19.435387 C206.620443,19.5321402 207.096139,19.6643675 207.531528,19.832073 C207.966917,19.9997784 208.365212,20.1997319 208.726423,20.4319395 C209.087635,20.6641471 209.410141,20.9157015 209.69395,21.1866103 L208.745774,22.6282251 C208.655471,22.7636795 208.547432,22.8701064 208.421653,22.9475089 C208.295873,23.0249114 208.158809,23.0636121 208.010454,23.0636121 C207.816947,23.0636121 207.616994,22.999111 207.410587,22.8701068 C207.152579,22.7153017 206.909087,22.5814619 206.680105,22.4685832 C206.451122,22.3557045 206.217305,22.2637904 205.978648,22.1928381 C205.73999,22.1218858 205.488435,22.0702849 205.223977,22.0380338 C204.959518,22.0057828 204.662813,21.9896575 204.333852,21.9896575 C203.721082,21.9896575 203.169598,22.0976969 202.679382,22.3137789 C202.189166,22.529861 201.771521,22.8346288 201.426435,23.2280916 C201.081348,23.6215545 200.815281,24.0940253 200.628225,24.6455182 C200.441169,25.1970112 200.347642,25.8113845 200.347642,26.4886566 C200.347642,27.236881 200.450844,27.9012426 200.657251,28.4817616 C200.863658,29.0622805 201.149075,29.5524891 201.513512,29.9524021 C201.877949,30.3523152 202.310106,30.657083 202.809998,30.8667149 C203.309889,31.0763467 203.856536,31.181161 204.449956,31.181161 Z M215.886121,23.3538701 C216.550493,23.3538701 217.158416,23.4570719 217.709909,23.6634786 C218.261402,23.8698854 218.735485,24.1698156 219.132173,24.5632785 C219.528861,24.9567413 219.838466,25.4388873 220.060999,26.0097309 C220.283531,26.5805745 220.394795,27.2271983 220.394795,27.9496219 C220.394795,28.1753792 220.38512,28.3592075 220.36577,28.5011121 C220.346419,28.6430167 220.310943,28.7558937 220.259342,28.8397464 C220.20774,28.9235992 220.138401,28.9816502 220.051323,29.0139012 C219.964246,29.0461523 219.852981,29.0622776 219.717527,29.0622776 L213.931717,29.0622776 C214.02847,29.9008049 214.28325,30.5087281 214.696063,30.8860654 C215.108877,31.2634027 215.641011,31.4520685 216.292482,31.4520685 C216.640794,31.4520685 216.940724,31.4101428 217.192282,31.32629 C217.44384,31.2424373 217.667982,31.1489107 217.864713,31.0457073 C218.061444,30.9425039 218.242048,30.8489773 218.406528,30.7651246 C218.571008,30.6812718 218.743549,30.6393461 218.924155,30.6393461 C219.162813,30.6393461 219.343416,30.7264226 219.46597,30.9005783 L220.336744,31.9745329 C220.027134,32.3292945 219.69334,32.6179371 219.335354,32.8404693 C218.977367,33.0630016 218.609711,33.2371546 218.232373,33.3629337 C217.855036,33.4887128 217.477704,33.5757893 217.100367,33.6241659 C216.72303,33.6725425 216.363436,33.6967304 216.021575,33.6967304 C215.318502,33.6967304 214.658978,33.5822409 214.042983,33.3532585 C213.426988,33.124276 212.888403,32.7840325 212.427213,32.3325178 C211.966023,31.8810031 211.601592,31.3198432 211.333908,30.6490214 C211.066224,29.9781995 210.932384,29.1977358 210.932384,28.3076068 C210.932384,27.6367849 211.046874,27.0014487 211.275856,26.4015792 C211.504839,25.8017096 211.833795,25.2760254 212.262734,24.8245107 C212.691673,24.372996 213.210907,24.0150147 213.820452,23.750556 C214.429996,23.4860974 215.118546,23.3538701 215.886121,23.3538701 Z M215.944173,25.4243772 C215.370104,25.4243772 214.921821,25.5872426 214.59931,25.9129782 C214.2768,26.2387138 214.063946,26.7079596 213.960743,27.3207295 L217.705071,27.3207295 C217.705071,27.0820718 217.674433,26.8498677 217.613156,26.6241103 C217.551879,26.398353 217.451902,26.1967869 217.313223,26.0194061 C217.174543,25.8420254 216.992328,25.6985103 216.76657,25.5888568 C216.540813,25.4792032 216.266683,25.4243772 215.944173,25.4243772 Z M225.63879,33.6967304 C225.161474,33.6967304 224.740605,33.6273917 224.376168,33.4887122 C224.011731,33.3500327 223.70535,33.1533042 223.457017,32.8985209 C223.208684,32.6437376 223.020018,32.3357447 222.891014,31.9745329 C222.76201,31.6133211 222.697509,31.2101891 222.697509,30.7651246 L222.697509,25.5791815 L221.846085,25.5791815 C221.69128,25.5791815 221.559053,25.5291931 221.449399,25.4292149 C221.339746,25.3292366 221.28492,25.1824965 221.28492,24.9889902 L221.28492,23.8182829 L222.881339,23.5086744 L223.47153,21.0608319 C223.548933,20.7512218 223.768237,20.596419 224.129448,20.596419 L225.696842,20.596419 L225.696842,23.5280249 L228.135009,23.5280249 L228.135009,25.5791815 L225.696842,25.5791815 L225.696842,30.561944 C225.696842,30.7941515 225.75328,30.9860424 225.866159,31.1376223 C225.979037,31.2892023 226.141903,31.3649911 226.35476,31.3649911 C226.464413,31.3649911 226.556327,31.3537034 226.630505,31.3311277 C226.704682,31.3085519 226.769183,31.2827515 226.82401,31.2537255 C226.878837,31.2246996 226.930438,31.1988991 226.978815,31.1763234 C227.027191,31.1537477 227.08363,31.14246 227.148132,31.14246 C227.238435,31.14246 227.310998,31.1634228 227.365825,31.2053492 C227.420652,31.2472756 227.47709,31.3133892 227.535142,31.4036922 L228.444617,32.8259564 C228.057605,33.1162159 227.622222,33.3339072 227.138456,33.4790369 C226.654691,33.6241667 226.154807,33.6967304 225.63879,33.6967304 Z M231.579404,19.4450623 C231.721309,19.4450623 231.840636,19.4515124 231.937389,19.4644128 C232.034142,19.4773132 232.121218,19.5015012 232.198621,19.5369773 C232.276024,19.5724535 232.3502,19.6224418 232.421152,19.686944 C232.492104,19.7514461 232.572731,19.8385226 232.663034,19.9481762 L239.358319,28.4140347 C239.332518,28.1431259 239.313167,27.8802837 239.300267,27.6255004 C239.287366,27.3707171 239.280916,27.1304504 239.280916,26.9046931 L239.280916,19.4450623 L242.164146,19.4450623 L242.164146,33.5419262 L240.461299,33.5419262 C240.209741,33.5419262 239.996887,33.5032255 239.822731,33.425823 C239.648576,33.3484204 239.480873,33.2065179 239.319617,33.0001112 L232.672709,24.6019795 C232.69206,24.8470875 232.708185,25.0873542 232.721085,25.3227869 C232.733986,25.5582196 232.740436,25.779136 232.740436,25.9855427 L232.740436,33.5419262 L229.857206,33.5419262 L229.857206,19.4450623 L231.579404,19.4450623 Z M247.582295,23.5086744 L247.582295,33.5419262 L244.582963,33.5419262 L244.582963,23.5086744 L247.582295,23.5086744 Z M247.930605,20.7608986 C247.930605,20.9995564 247.882229,21.2236978 247.785476,21.4333296 C247.688723,21.6429615 247.556496,21.8267897 247.38879,21.9848198 C247.221085,22.14285 247.025969,22.2686272 246.803436,22.3621552 C246.580904,22.4556833 246.343862,22.5024466 246.092304,22.5024466 C245.847196,22.5024466 245.618217,22.4556833 245.40536,22.3621552 C245.192503,22.2686272 245.003838,22.14285 244.839357,21.9848198 C244.674877,21.8267897 244.545875,21.6429615 244.452347,21.4333296 C244.358818,21.2236978 244.312055,20.9995564 244.312055,20.7608986 C244.312055,20.5157906 244.358818,20.2868116 244.452347,20.0739546 C244.545875,19.8610977 244.674877,19.6740444 244.839357,19.5127891 C245.003838,19.3515339 245.192503,19.2257567 245.40536,19.1354537 C245.618217,19.0451508 245.847196,19 246.092304,19 C246.343862,19 246.580904,19.0451508 246.803436,19.1354537 C247.025969,19.2257567 247.221085,19.3515339 247.38879,19.5127891 C247.556496,19.6740444 247.688723,19.8610977 247.785476,20.0739546 C247.882229,20.2868116 247.930605,20.5157906 247.930605,20.7608986 Z M250.001112,33.5419262 L250.001112,23.5086744 L251.858763,23.5086744 C252.045819,23.5086744 252.202235,23.5506001 252.328014,23.6344528 C252.453793,23.7183056 252.542482,23.8440828 252.594084,24.0117883 L252.768238,24.5923043 C252.961745,24.4116984 253.161698,24.2439954 253.368105,24.0891904 C253.574512,23.9343853 253.795428,23.8037705 254.030861,23.6973421 C254.266293,23.5909136 254.521073,23.5070621 254.795207,23.4457851 C255.069341,23.3845081 255.367659,23.3538701 255.690169,23.3538701 C256.238437,23.3538701 256.723808,23.4490093 257.146297,23.6392905 C257.568785,23.8295717 257.925154,24.0940263 258.215414,24.4326624 C258.505673,24.7712984 258.724977,25.1744305 258.873332,25.6420707 C259.021687,26.109711 259.095863,26.6176574 259.095863,27.1659253 L259.095863,33.5419262 L256.09653,33.5419262 L256.09653,27.1659253 C256.09653,26.6757093 255.983653,26.2935401 255.757896,26.0194061 C255.532139,25.7452722 255.199958,25.6082073 254.761343,25.6082073 C254.432383,25.6082073 254.122777,25.6791585 253.832518,25.8210632 C253.542258,25.9629678 253.264903,26.1532461 253.000445,26.3919039 L253.000445,33.5419262 L250.001112,33.5419262 Z M264.320507,23.5086744 L264.320507,33.5612767 C264.320507,34.032142 264.260844,34.4755873 264.141515,34.8916259 C264.022186,35.3076644 263.825457,35.6720959 263.551323,35.984931 C263.277189,36.2977662 262.915983,36.5444831 262.467694,36.725089 C262.019404,36.9056949 261.463082,36.9959964 260.79871,36.9959964 C260.553602,36.9959964 260.326235,36.9814837 260.116604,36.9524577 C259.906972,36.9234318 259.68928,36.8798935 259.463523,36.8218416 L259.560276,35.2447731 C259.573176,35.1093187 259.618327,35.009342 259.69573,34.9448399 C259.773132,34.8803378 259.927935,34.8480872 260.160142,34.8480872 C260.39235,34.8480872 260.582628,34.8287368 260.730983,34.7900356 C260.879338,34.7513343 260.997053,34.6836081 261.08413,34.586855 C261.171208,34.4901018 261.232484,34.359487 261.26796,34.1950067 C261.303437,34.0305263 261.321174,33.8192851 261.321174,33.5612767 L261.321174,23.5086744 L264.320507,23.5086744 Z M264.668817,20.7608986 C264.668817,20.9995564 264.620441,21.2236978 264.523688,21.4333296 C264.426935,21.6429615 264.294707,21.8267897 264.127002,21.9848198 C263.959296,22.14285 263.76418,22.2686272 263.541648,22.3621552 C263.319116,22.4556833 263.082074,22.5024466 262.830516,22.5024466 C262.585408,22.5024466 262.356429,22.4556833 262.143572,22.3621552 C261.930715,22.2686272 261.742049,22.14285 261.577569,21.9848198 C261.413089,21.8267897 261.284086,21.6429615 261.190558,21.4333296 C261.09703,21.2236978 261.050267,20.9995564 261.050267,20.7608986 C261.050267,20.5157906 261.09703,20.2868116 261.190558,20.0739546 C261.284086,19.8610977 261.413089,19.6740444 261.577569,19.5127891 C261.742049,19.3515339 261.930715,19.2257567 262.143572,19.1354537 C262.356429,19.0451508 262.585408,19 262.830516,19 C263.082074,19 263.319116,19.0451508 263.541648,19.1354537 C263.76418,19.2257567 263.959296,19.3515339 264.127002,19.5127891 C264.294707,19.6740444 264.426935,19.8610977 264.523688,20.0739546 C264.620441,20.2868116 264.668817,20.5157906 264.668817,20.7608986 Z M273.628114,33.5419262 C273.344305,33.5419262 273.129838,33.5032255 272.984709,33.425823 C272.839579,33.3484204 272.718639,33.1871676 272.621886,32.9420596 L272.40903,32.3905694 C272.157472,32.6034263 271.915593,32.7904796 271.683385,32.9517349 C271.451178,33.1129901 271.210911,33.250055 270.962578,33.3629337 C270.714245,33.4758124 270.44979,33.5596639 270.169206,33.6144907 C269.888622,33.6693174 269.577404,33.6967304 269.235543,33.6967304 C268.777578,33.6967304 268.361545,33.6370669 267.987433,33.517738 C267.613321,33.3984091 267.295653,33.2226435 267.034419,32.9904359 C266.773186,32.7582284 266.57162,32.4695858 266.429715,32.1244996 C266.287811,31.7794133 266.216859,31.3811188 266.216859,30.9296041 C266.216859,30.5748425 266.307161,30.2104111 266.487767,29.8362989 C266.668373,29.4621867 266.981203,29.1219433 267.426268,28.8155583 C267.871332,28.5091733 268.471193,28.2527813 269.225867,28.0463746 C269.980542,27.8399678 270.931934,27.7238658 272.080071,27.6980649 L272.080071,27.2723532 C272.080071,26.6853841 271.959132,26.2612891 271.717249,26.0000556 C271.475366,25.7388221 271.131897,25.6082073 270.686833,25.6082073 C270.332071,25.6082073 270.041816,25.646908 269.816059,25.7243105 C269.590301,25.801713 269.388735,25.8887896 269.211355,25.9855427 C269.033974,26.0822959 268.861433,26.1693724 268.693728,26.2467749 C268.526022,26.3241774 268.326069,26.3628781 268.093861,26.3628781 C267.887454,26.3628781 267.711689,26.3128897 267.566559,26.2129115 C267.421429,26.1129332 267.30694,25.9887685 267.223087,25.8404137 L266.681272,24.9019128 C267.287592,24.3665454 267.960016,23.9682509 268.698565,23.7070173 C269.437114,23.4457838 270.228866,23.315169 271.073843,23.315169 C271.680163,23.315169 272.22681,23.4135333 272.713801,23.6102647 C273.200792,23.8069961 273.613599,24.0811259 273.952235,24.4326624 C274.290871,24.7841988 274.550488,25.2018437 274.731094,25.6856094 C274.9117,26.1693752 275.002002,26.6982845 275.002002,27.2723532 L275.002002,33.5419262 L273.628114,33.5419262 Z M270.183719,31.7133007 C270.570731,31.7133007 270.909362,31.6455745 271.199622,31.5101201 C271.489881,31.3746657 271.783362,31.1553618 272.080071,30.852202 L272.080071,29.4589635 C271.480202,29.4847644 270.986768,29.5363653 270.599755,29.6137678 C270.212743,29.6911703 269.906362,29.787922 269.680605,29.9040258 C269.454848,30.0201296 269.298432,30.1523569 269.211355,30.3007117 C269.124277,30.4490666 269.080738,30.6103194 269.080738,30.7844751 C269.080738,31.1263362 269.174265,31.366603 269.361321,31.5052825 C269.548377,31.643962 269.822507,31.7133007 270.183719,31.7133007 Z M283.26468,25.70496 C283.187277,25.827514 283.105038,25.9145905 283.01796,25.9661922 C282.930883,26.0177939 282.819618,26.0435943 282.684164,26.0435943 C282.542259,26.0435943 282.400357,26.0129563 282.258452,25.9516793 C282.116547,25.8904023 281.963357,25.8242886 281.798877,25.7533363 C281.634396,25.682384 281.448956,25.6162703 281.242549,25.5549933 C281.036142,25.4937163 280.800713,25.4630783 280.536254,25.4630783 C280.155692,25.4630783 279.863824,25.5356421 279.660643,25.6807718 C279.457461,25.8259015 279.355872,26.0274676 279.355872,26.285476 C279.355872,26.4725321 279.421986,26.6273348 279.554215,26.7498888 C279.686444,26.8724428 279.86221,26.9804822 280.081517,27.0740102 C280.300824,27.1675383 280.549153,27.2562273 280.826512,27.3400801 C281.103871,27.4239328 281.387676,27.5174594 281.677936,27.6206628 C281.968195,27.7238662 282.252,27.8448058 282.529359,27.9834853 C282.806718,28.1221648 283.055048,28.2930928 283.274355,28.4962745 C283.493662,28.6994561 283.669428,28.9461729 283.801657,29.2364324 C283.933886,29.5266918 284,29.874998 284,30.2813612 C284,30.7780274 283.909698,31.2359854 283.729093,31.6552491 C283.548487,32.0745128 283.279194,32.4357191 282.921208,32.738879 C282.563221,33.0420389 282.121388,33.277468 281.595696,33.4451735 C281.070004,33.612879 280.465306,33.6967304 279.781584,33.6967304 C279.439722,33.6967304 279.097866,33.6644799 278.756005,33.5999778 C278.414144,33.5354757 278.083576,33.4483991 277.76429,33.3387456 C277.445005,33.229092 277.149912,33.0984772 276.879004,32.9468972 C276.608095,32.7953173 276.375891,32.6324519 276.182384,32.4582963 L276.879004,31.3553158 C276.962856,31.2263116 277.062833,31.1247223 277.178937,31.0505449 C277.295041,30.9763675 277.446618,30.9392794 277.633674,30.9392794 C277.80783,30.9392794 277.964245,30.97798 278.102925,31.0553826 C278.241604,31.1327851 278.391569,31.2166366 278.552825,31.3069395 C278.71408,31.3972424 278.902746,31.4810939 279.118828,31.5584964 C279.33491,31.635899 279.607427,31.6745996 279.936388,31.6745996 C280.168595,31.6745996 280.365324,31.6504117 280.526579,31.6020351 C280.687834,31.5536586 280.816837,31.4875449 280.91359,31.4036922 C281.010343,31.3198394 281.081294,31.2263128 281.126446,31.1231094 C281.171597,31.0199061 281.194173,30.9134792 281.194173,30.8038256 C281.194173,30.6038691 281.126446,30.4393912 280.990992,30.310387 C280.855538,30.1813828 280.678159,30.0701184 280.458852,29.9765903 C280.239545,29.8830623 279.989603,29.7959857 279.709019,29.7153581 C279.428435,29.6347305 279.143017,29.5428164 278.852758,29.439613 C278.562499,29.3364096 278.277081,29.2122449 277.996497,29.0671152 C277.715913,28.9219855 277.465971,28.7381573 277.246664,28.515625 C277.027357,28.2930927 276.849978,28.0205755 276.714524,27.6980649 C276.57907,27.3755544 276.511343,26.9853226 276.511343,26.5273577 C276.511343,26.1016438 276.593582,25.6968992 276.758063,25.3131117 C276.922543,24.9293241 277.16926,24.5923057 277.498221,24.3020463 C277.827181,24.0117868 278.239989,23.7811952 278.736655,23.6102647 C279.233321,23.4393341 279.813831,23.3538701 280.478203,23.3538701 C280.839415,23.3538701 281.189333,23.3861207 281.527969,23.4506228 C281.866605,23.5151249 282.184273,23.6054265 282.480983,23.7215302 C282.777693,23.837634 283.048598,23.9746989 283.293706,24.1327291 C283.538814,24.2907592 283.754892,24.4632998 283.941948,24.6503559 L283.26468,25.70496 Z" transform="translate(-197 -19)"/>
</svg>
