<svg width="21" height="21" viewBox="0 0 21 21" fill="none" xmlns="http://www.w3.org/2000/svg">
<path d="M10.9999 15C10.3999 15 9.99994 14.6 9.99994 14V10C9.99994 9.4 10.3999 9 10.9999 9C11.5999 9 11.9999 9.4 11.9999 10V14C11.9999 14.6 11.5999 15 10.9999 15ZM10.9999 0C5.39994 0 0.799937 4.7 0.999937 10.3C1.19994 15.5 5.49994 19.8 10.6999 20C16.3999 20.1 20.9999 15.6 20.9999 10C20.9999 4.5 16.4999 0 10.9999 0ZM12.5999 17.9C6.99994 19 2.09994 14.1 3.19994 8.5C3.79994 5.4 6.29994 2.8 9.49994 2.2C15.0999 1.1 19.9999 6 18.8999 11.6C18.2999 14.7 15.6999 17.3 12.5999 17.9ZM10.9999 5C11.5999 5 11.9999 5.4 11.9999 6C11.9999 6.6 11.5999 7 10.9999 7C10.3999 7 9.99994 6.6 9.99994 6C9.99994 5.4 10.3999 5 10.9999 5Z" fill="#006513"/>
</svg>
