<?xml version="1.0" encoding="UTF-8" standalone="no"?>
<svg xmlns="http://www.w3.org/2000/svg" width="24" height="24" viewBox="0 0 24 24">
  <g fill="none" fill-rule="evenodd">
    <path fill="#FFFFFF" fill-opacity=".01" d="M11.9075017,24 C18.4838334,24 23.8150035,18.627417 23.8150035,12 C23.8150035,5.372583 18.4838334,0 11.9075017,0 C5.33117012,0 0,5.372583 0,12 C0,18.627417 5.33117012,24 11.9075017,24 Z"/>
    <path fill="#40D879" d="M9.72514435,16.3076903 L6.37512306,12.738363 C5.85805739,12.1873698 5.877999,11.3144694 6.41965178,10.7885973 C6.96147451,10.2628404 7.81958711,10.2829488 8.33676609,10.833942 L10.6561118,13.3052009 L15.609167,7.47722215 C16.098813,6.90122311 16.9549994,6.83755611 17.5217491,7.33577195 C18.0883289,7.83381494 18.1506465,8.70464114 17.6608872,9.28092827 L11.731826,16.2572752 C11.4819326,16.5513533 11.1216239,16.7245506 10.7394474,16.7341151 C10.3357996,16.7345184 9.98126946,16.5806229 9.72514435,16.3076903 Z"/>
  </g>
</svg>
