<?xml version="1.0" encoding="UTF-8" standalone="no"?>
<svg width="11px" height="21px" viewBox="0 0 11 21" version="1.1" xmlns="http://www.w3.org/2000/svg" xmlns:xlink="http://www.w3.org/1999/xlink">
    <!-- Generator: sketchtool 39.1 (31720) - http://www.bohemiancoding.com/sketch -->
    <title>377CA8F8-A507-4AA4-936E-509802C4C409</title>
    <desc>Created with sketchtool.</desc>
    <defs></defs>
    <g id="Symbols" stroke="none" stroke-width="1" fill="none" fill-rule="evenodd" opacity="0.5">
        <g id="RODAPE" transform="translate(-1033.000000, -31.000000)" fill="#FFFFFF">
            <g id="Group-8" transform="translate(1033.000000, 31.000000)">
                <path d="M0,6.80404953 C0.0258232127,5.50808603 0.14215242,4.229837 0.557943569,2.99431479 C0.731907193,2.47741391 0.92408429,1.96799802 1.2460012,1.51883629 C1.50934807,1.1513857 1.84068359,0.895087196 2.29340069,0.792168594 C3.3713015,0.547159948 4.44564695,0.286682324 5.52186365,0.0343758139 C6.19164543,-0.122621834 6.65845926,0.270714347 6.60625146,0.95764923 C6.50320811,2.3143659 6.39455101,3.67070831 6.28327417,5.02680123 C6.24428985,5.50116242 5.90865046,5.87603563 5.43996539,5.98893421 C5.06166156,6.08000158 4.68435573,6.17555994 4.30411828,6.2577077 C4.12373004,6.29662964 4.02966868,6.39992249 3.97640051,6.56908325 C3.79794589,7.13532268 3.80343488,7.71721822 3.83125409,8.29861475 C3.87959465,9.31052291 4.11774205,10.2895595 4.37129606,11.2649783 C4.57201852,12.037055 4.84721662,12.7813124 5.25695741,13.4671245 C5.41526493,13.7320932 5.62821287,13.9643773 5.81496335,14.2125671 C5.93609542,14.3735567 6.0915337,14.3881525 6.27398031,14.3398743 C6.67523811,14.2337122 7.07855427,14.1353469 7.48124669,14.0346115 C8.05384837,13.8913987 8.58540735,14.1265521 8.85985695,14.6461975 C9.46576683,15.7933968 10.0711153,16.9408456 10.6757777,18.0886687 C11.0076122,18.7185929 10.752187,19.2664942 10.0600126,19.4236166 C9.01255073,19.6614521 7.96384137,19.89436 6.91999725,20.1472903 C6.33991059,20.2878209 5.83542232,20.1527793 5.36043738,19.820321 C4.37759593,19.1323257 3.62067639,18.237121 2.97665545,17.237376 C1.86794143,15.5162027 1.14994384,13.6346635 0.677890521,11.6508295 C0.453091345,10.7060991 0.229602043,9.76086976 0.138846549,8.79224979 C0.076845889,8.13095099 0.0452218097,7.4669077 0,6.80404953 L0,6.80404953 Z" id="Page-1"></path>
            </g>
        </g>
    </g>
</svg>