<?xml version="1.0" encoding="UTF-8" standalone="no"?>
<svg width="22px" height="30px" viewBox="0 0 22 30" version="1.1" xmlns="http://www.w3.org/2000/svg" xmlns:xlink="http://www.w3.org/1999/xlink">
    <!-- Generator: sketchtool 39.1 (31720) - http://www.bohemiancoding.com/sketch -->
    <title>F4D7EBDA-D5A3-4EC9-BC36-EFB9E1B023B6</title>
    <desc>Created with sketchtool.</desc>
    <defs></defs>
    <g id="Symbols" stroke="none" stroke-width="1" fill="none" fill-rule="evenodd">
        <g id="icon/pin" transform="translate(-20.000000, -16.000000)">
            <g id="Group-28">
                <circle id="Oval-19-Copy-5" cx="31" cy="31" r="31"></circle>
                <path d="M30.8697748,32.3404408 C33.6538004,32.3353034 35.8750861,30.108668 35.8723959,27.3256388 C35.8697872,24.5634856 33.6112464,22.3367686 30.8267317,22.351284 C28.0871351,22.3654731 25.8870449,24.6255427 25.8929144,27.4194176 C25.8986209,30.1041014 28.1653138,32.3454152 30.8697748,32.3404408 M30.8734433,45.063128 C30.3977679,44.6238353 29.9223371,44.1984872 29.4622323,43.7572375 C27.5768948,41.9494265 25.8200346,40.0257375 24.2588249,37.9286799 C22.9540804,36.1760761 21.8001499,34.3338523 20.9754013,32.300646 C20.3889389,30.8550658 19.9933987,29.3633302 20.0000834,27.7932281 C20.0112518,25.1770437 20.7342621,22.7735333 22.2362875,20.6209424 C23.3462782,19.030209 24.7671086,17.7963243 26.5259254,16.9651178 C27.7876268,16.368766 29.1183765,16.048124 30.5132017,16.005475 C33.3304879,15.9192801 35.7788097,16.8516862 37.8519716,18.7417779 C39.8228247,20.5386617 41.0029235,22.7883748 41.5380277,25.3922457 C42.0769634,28.0152801 41.6293312,30.5006634 40.5380904,32.9059679 C39.5239685,35.1413288 38.1633821,37.1557794 36.6325797,39.0610388 C34.9403657,41.1670665 33.075653,43.1101636 31.0579254,44.906395 C31.0028172,44.9554862 30.9454264,45.002131 30.8734433,45.063128" id="Fill-1" fill="#1393F6"></path>
            </g>
        </g>
    </g>
</svg>