<?xml version="1.0" encoding="UTF-8" standalone="no"?>
<svg id="BG" xmlns="http://www.w3.org/2000/svg" viewBox="0 0 200 200"><defs><style>.cls-1{fill:#1393F6;}</style></defs><title>Logo_categoria</title><path class="cls-1" d="M99.5,1.09C45.65,1.09,2,42.07,2,98.59c0,51.18,43.65,97.5,97.5,97.5a97.5,97.5,0,1,0,0-195ZM91.3,120.6l-6.62,6.62a1.14,1.14,0,0,0-.11,1.52l3.12,3.12c.56.56.73,1.22.16,1.78L75.59,145.92a10.25,10.25,0,1,1-14.49-14.49l12.27-12.27c.56-.56,1.26-.37,1.82.19l3.31,3.31c.29.29,1,.07,1.24-.21l3.53-3.53c.44-.44.22-.93-.22-1.37l-1.63-1.63a3.57,3.57,0,0,1,.12-5l18.9-18.88a3.42,3.42,0,0,1,4.84,4.85L89.73,112.47a1.13,1.13,0,0,0,0,1.6l1.6,1.65A3.47,3.47,0,0,1,91.3,120.6Zm54.94-65.89-28.61,76.5a2.6,2.6,0,0,1-4.37.84L94.74,113.54l14.4-14.4a6.82,6.82,0,0,0,0-9.64l-1.26-1.26a6.82,6.82,0,0,0-9.64,0l-14.4,14.4L65.31,84.11a2.6,2.6,0,0,1,.84-4.37l76.49-28.49A2.75,2.75,0,0,1,146.24,54.72Z"/></svg>