<svg width="96" height="96" viewBox="0 0 96 96" fill="none" xmlns="http://www.w3.org/2000/svg">
<path d="M40.9997 48.8148C40.9997 53.4829 44.8045 57.2682 49.499 57.2682C54.1935 57.2682 57.9983 53.4829 57.9983 48.8148C57.9983 44.1467 54.1935 40.3615 49.499 40.3615C44.8055 40.3615 40.9997 44.1467 40.9997 48.8148Z" fill="black"/>
<path fill-rule="evenodd" clip-rule="evenodd" d="M59.803 28.1723C57.1137 28.0505 56.308 28.0243 49.499 28.0243C42.69 28.0243 41.8843 28.0505 39.1949 28.1723C36.709 28.2851 35.3588 28.6978 34.4599 29.0451C33.2696 29.5041 32.4204 30.0538 31.5276 30.9417C30.6359 31.8295 30.0832 32.6741 29.6207 33.858C29.2715 34.7519 28.8565 36.0948 28.7431 38.5672C28.6206 41.2419 28.5943 42.0432 28.5943 48.815C28.5943 55.5869 28.6206 56.3892 28.7431 59.0629C28.8565 61.5353 29.2715 62.8782 29.6207 63.7721C30.0822 64.956 30.6349 65.8006 31.5276 66.6884C32.4204 67.5753 33.2696 68.125 34.4599 68.585C35.3588 68.9323 36.709 69.345 39.1949 69.4578C41.8833 69.5796 42.69 69.6058 49.499 69.6058C56.308 69.6058 57.1147 69.5796 59.803 69.4578C62.289 69.345 63.6392 68.9323 64.538 68.585C65.7284 68.126 66.5776 67.5763 67.4704 66.6884C68.3621 65.8006 68.9147 64.956 69.3773 63.7721C69.7265 62.8782 70.1415 61.5353 70.2549 59.0629C70.3773 56.3882 70.4037 55.5869 70.4037 48.815C70.4037 42.0432 70.3773 41.2409 70.2549 38.5672C70.1415 36.0948 69.7265 34.7519 69.3773 33.858C68.9157 32.6741 68.3631 31.8295 67.4704 30.9417C66.5776 30.0548 65.7284 29.5052 64.538 29.0451C63.6392 28.6978 62.289 28.2851 59.803 28.1723ZM36.4054 48.8148C36.4054 41.6229 42.2669 35.792 49.499 35.792C56.731 35.792 62.5926 41.6219 62.5926 48.8148C62.5926 56.0078 56.731 61.8376 49.499 61.8376C42.2669 61.8376 36.4054 56.0068 36.4054 48.8148ZM63.1111 38.324C64.8009 38.324 66.1708 36.961 66.1708 35.2797C66.1708 33.5983 64.8009 32.2354 63.1111 32.2354C61.4212 32.2354 60.0513 33.5983 60.0513 35.2797C60.0513 36.961 61.4212 38.324 63.1111 38.324Z" fill="black"/>
<path fill-rule="evenodd" clip-rule="evenodd" d="M48 0C21.4903 0 0 21.4903 0 48C0 74.5097 21.4903 96 48 96C74.5097 96 96 74.5097 96 48C96 21.4903 74.5097 0 48 0ZM38.9854 23.6081C41.7052 23.4843 42.5736 23.4551 49.499 23.4551C56.4244 23.4551 57.2928 23.4843 60.0136 23.6071C62.7272 23.7299 64.5816 24.1587 66.2031 24.7859C67.8803 25.4342 69.3014 26.3009 70.7195 27.7113C72.1375 29.1206 73.009 30.535 73.6609 32.203C74.2915 33.8157 74.7227 35.6599 74.8462 38.3588C74.9706 41.0637 75 41.9274 75 48.815C75 55.7027 74.9706 56.5664 74.8462 59.2713C74.7227 61.9702 74.2915 63.8144 73.6609 65.4271C73.009 67.0951 72.1375 68.5085 70.7195 69.9188C69.3024 71.3292 67.8803 72.1959 66.2031 72.8442C64.5816 73.4714 62.7272 73.9002 60.0136 74.023C57.2938 74.1468 56.4254 74.176 49.5 74.176C42.5746 74.176 41.7062 74.1468 38.9864 74.023C36.2728 73.9002 34.4184 73.4714 32.7969 72.8442C31.1197 72.1959 29.6986 71.3292 28.2805 69.9188C26.8625 68.5095 25.991 67.0951 25.3391 65.4271C24.7085 63.8144 24.2773 61.9702 24.1539 59.2713C24.0294 56.5664 24 55.7027 24 48.815C24 41.9274 24.0294 41.0637 24.1528 38.3588C24.2763 35.6599 24.7075 33.8157 25.3381 32.203C25.99 30.536 26.8625 29.1216 28.2795 27.7123C29.6966 26.3019 31.1187 25.4352 32.7959 24.7869C34.4174 24.1597 36.2717 23.7309 38.9854 23.6081Z" fill="black"/>
</svg>
