<svg width="96" height="96" viewBox="0 0 96 96" fill="none" xmlns="http://www.w3.org/2000/svg">
<path fill-rule="evenodd" clip-rule="evenodd" d="M48 0C21.4903 0 0 21.4903 0 48C0 74.5097 21.4903 96 48 96C74.5097 96 96 74.5097 96 48C96 21.4903 74.5097 0 48 0ZM66.1053 35.8044C68.0859 35.5818 69.9744 35.0834 71.73 34.3465C70.4177 36.2053 68.7577 37.8373 66.8429 39.1438C66.8619 39.5405 66.8714 39.9408 66.8714 40.3424C66.8714 52.5919 57.0213 66.7154 39.0096 66.7154C33.4798 66.7154 28.3313 65.1815 24 62.5506C24.7646 62.6371 25.546 62.6806 26.3347 62.6806C30.9238 62.6806 35.1456 61.1993 38.4976 58.7129C34.2116 58.6375 30.5959 55.9576 29.3501 52.276C29.9474 52.3838 30.5602 52.4412 31.1926 52.4412C32.0843 52.4412 32.9511 52.3285 33.7719 52.1156C29.2931 51.2647 25.9163 47.5189 25.9163 43.0279C25.9163 42.9892 25.9163 42.9498 25.917 42.9104C27.2366 43.6064 28.7476 44.0233 30.352 44.0709C27.7259 42.4092 25.9959 39.571 25.9959 36.356C25.9959 34.6576 26.4793 33.0643 27.3221 31.6956C32.1522 37.3051 39.3681 40.9949 47.5064 41.3813C47.3385 40.7025 47.2516 39.9954 47.2516 39.2689C47.2516 34.1509 51.6369 30 57.044 30C59.8621 30 62.4072 31.1253 64.1935 32.926C66.423 32.5106 68.5197 31.7399 70.4118 30.6774C69.6794 32.8431 68.1275 34.6576 66.1053 35.8044Z" fill="black"/>
</svg>
