<svg width="96" height="96" viewBox="0 0 96 96" fill="none" xmlns="http://www.w3.org/2000/svg">
<path d="M57.6282 48.0017L42.0141 56.9947V39.0088L57.6282 48.0017Z" fill="black"/>
<path fill-rule="evenodd" clip-rule="evenodd" d="M0 48C0 21.4903 21.4903 0 48 0C74.5097 0 96 21.4903 96 48C96 74.5097 74.5097 96 48 96C21.4903 96 0 74.5097 0 48ZM76.7506 33.5718C76.0588 31.0024 74.0329 28.9765 71.4635 28.2847C66.7694 27 47.9929 27 47.9929 27C47.9929 27 29.2165 27 24.5224 28.2353C22.0024 28.9271 19.9271 31.0024 19.2353 33.5718C18 38.2659 18 48 18 48C18 48 18 57.7835 19.2353 62.4282C19.9271 64.9976 21.9529 67.0235 24.5224 67.7153C29.2659 69 47.9929 69 47.9929 69C47.9929 69 66.7694 69 71.4635 67.7647C74.0329 67.0729 76.0588 65.0471 76.7506 62.4777C77.9859 57.7835 77.9859 48.0494 77.9859 48.0494C77.9859 48.0494 78.0353 38.2659 76.7506 33.5718Z" fill="black"/>
</svg>
