<?xml version="1.0" encoding="UTF-8" standalone="no"?>
<svg width="34px" height="34px" viewBox="0 0 34 34" version="1.1" xmlns="http://www.w3.org/2000/svg" xmlns:xlink="http://www.w3.org/1999/xlink">
    <!-- Generator: sketchtool 39.1 (31720) - http://www.bohemiancoding.com/sketch -->
    <title>A8132787-F44E-4154-8C77-9EA7759D1BBE</title>
    <desc>Created with sketchtool.</desc>
    <defs>
        <circle id="path-1" cx="15" cy="15" r="15"></circle>
        <mask id="mask-2" maskContentUnits="userSpaceOnUse" maskUnits="objectBoundingBox" x="-2" y="-2" width="34" height="34">
            <rect x="-2" y="-2" width="34" height="34" fill="white"></rect>
            <use xlink:href="#path-1" fill="black"></use>
        </mask>
    </defs>
    <g id="Symbols" stroke="none" stroke-width="1" fill="none" fill-rule="evenodd" opacity="0.8">
        <g id="RODAPE" transform="translate(-837.000000, -103.000000)">
            <g id="Group-10" transform="translate(572.000000, 105.000000)">
                <g id="Group-9" transform="translate(147.000000, 0.000000)">
                    <g id="Google-Plus" transform="translate(120.000000, 0.000000)">
                        <use id="Oval-1-Copy-6" stroke="#FFFFFF" mask="url(#mask-2)" stroke-width="4" opacity="0.2" xlink:href="#path-1"></use>
                        <path d="M7.29872621,14.9427733 C7.34089287,12.4173321 9.66022621,10.2055482 12.1830595,10.2898018 C13.3917262,10.2337439 14.5280595,10.7602877 15.4538929,11.4998847 C15.0588929,11.949182 14.6497262,12.3822959 14.2123929,12.7872141 C13.0995595,12.0170855 11.5165595,11.7971917 10.4037262,12.6866102 C8.81139287,13.7889151 8.73905954,16.3916027 10.2703929,17.5781613 C11.7597262,18.9310584 14.5748929,18.2591979 14.9863929,16.1878924 C14.0533929,16.1738779 13.1182262,16.1878924 12.1853929,16.1575277 C12.1830595,15.6004524 12.1807262,15.0433772 12.1830595,14.4863019 C13.7425595,14.4816304 15.3020595,14.4792947 16.8638929,14.4909734 C16.9573929,15.8016602 16.7843929,17.1966007 15.9800595,18.2803865 C14.7618929,19.9959914 12.3162262,20.4968419 10.4083929,19.7619164 C8.49355954,19.0316623 7.13739287,17.0070716 7.29872621,14.9427733" id="Fill-186" fill="#FFFFFF"></path>
                        <path d="M20.2669762,13.2857143 L21.6581429,13.2857143 C21.6604762,13.7515286 21.6628095,14.2195119 21.6674762,14.6853262 C22.1328095,14.6899977 22.6003095,14.6899977 23.0656429,14.6946692 L23.0656429,16.0872739 C22.6003095,16.0919454 22.1351429,16.0942812 21.6674762,16.0989527 C21.6628095,16.5671027 21.6604762,17.0329171 21.6581429,17.4985646 L20.2646429,17.4985646 C20.2599762,17.0329171 20.2599762,16.5671027 20.2553095,16.1012884 C19.7899762,16.0966169 19.3223095,16.0919454 18.8571429,16.0872739 L18.8571429,14.6946692 C19.3223095,14.6899977 19.7876429,14.687662 20.2553095,14.6853262 C20.2576429,14.2171761 20.2623095,13.7515286 20.2669762,13.2857143" id="Fill-187" fill="#FFFFFF"></path>
                    </g>
                </g>
            </g>
        </g>
    </g>
</svg>