<?xml version="1.0" encoding="UTF-8" standalone="no"?>
<svg width="34px" height="34px" viewBox="0 0 34 34" version="1.1" xmlns="http://www.w3.org/2000/svg" xmlns:xlink="http://www.w3.org/1999/xlink">
    <!-- Generator: sketchtool 39.1 (31720) - http://www.bohemiancoding.com/sketch -->
    <title>F827B4E3-CE18-49E3-BC92-2160439C4283</title>
    <desc>Created with sketchtool.</desc>
    <defs>
        <circle id="path-1" cx="15" cy="15" r="15"></circle>
        <mask id="mask-2" maskContentUnits="userSpaceOnUse" maskUnits="objectBoundingBox" x="-2" y="-2" width="34" height="34">
            <rect x="-2" y="-2" width="34" height="34" fill="white"></rect>
            <use xlink:href="#path-1" fill="black"></use>
        </mask>
    </defs>
    <g id="Symbols" stroke="none" stroke-width="1" fill="none" fill-rule="evenodd" opacity="0.8">
        <g id="RODAPE" transform="translate(-867.000000, -103.000000)">
            <g id="Group-10" transform="translate(542.000000, 105.000000)">
                <g id="Group-9" transform="translate(147.000000, 0.000000)">
                    <g id="Linkedin" transform="translate(180.000000, 0.000000)">
                        <use id="Oval-1-Copy-6" stroke="#FFFFFF" mask="url(#mask-2)" stroke-width="4" opacity="0.2" xlink:href="#path-1"></use>
                        <g id="logo-linkedin" transform="translate(9.000000, 8.000000)" fill="#FFFFFF">
                            <path d="M2.94395833,1.391 C2.94395833,2.15908333 2.37683333,2.78109722 1.44444444,2.78109722 C0.567125,2.78109722 0,2.15908333 0,1.391 C0,0.605402778 0.585361111,0.001625 1.48109722,0.001625 C2.37683333,0.001625 2.92554167,0.605402778 2.94395833,1.391 L2.94395833,1.391 Z M0.0733055556,12.819625 L2.85223611,12.819625 L2.85223611,3.87797222 L0.0733055556,3.87797222 L0.0733055556,12.819625 Z" id="Fill-1"></path>
                            <path d="M4.51533333,6.73002778 C4.51533333,5.61509722 4.47940278,4.68270833 4.44256944,3.87797222 L6.85623611,3.87797222 L6.98461111,5.12127778 L7.0395,5.12127778 C7.40494444,4.53591667 8.30068056,3.67683333 9.80001389,3.67683333 C11.6288611,3.67683333 13,4.90190278 13,7.53476389 L13,12.819625 L10.2203472,12.819625 L10.2203472,7.86427778 C10.2203472,6.71179167 9.81843056,5.92601389 8.81273611,5.92601389 C8.04465278,5.92601389 7.58748611,6.45648611 7.38652778,6.96854167 C7.31322222,7.15108333 7.29480556,7.40711111 7.29480556,7.66313889 L7.29480556,12.819625 L4.51533333,12.819625 L4.51533333,6.73002778 Z" id="Fill-2"></path>
                        </g>
                    </g>
                </g>
            </g>
        </g>
    </g>
</svg>