<?xml version="1.0" encoding="UTF-8" standalone="no"?>
<svg width="14px" height="14px" viewBox="0 0 14 14" version="1.1" xmlns="http://www.w3.org/2000/svg" xmlns:xlink="http://www.w3.org/1999/xlink">
    <!-- Generator: sketchtool 39.1 (31720) - http://www.bohemiancoding.com/sketch -->
    <title>00006581-4381-470C-B63D-34A06F52C64D</title>
    <desc>Created with sketchtool.</desc>
    <defs></defs>
    <g id="Symbols" stroke="none" stroke-width="1" fill="none" fill-rule="evenodd">
        <g id="Pro" transform="translate(-55.000000, -79.000000)" fill="#F9C600">
            <g id="Conteúdo">
                <g transform="translate(55.000000, 0.000000)">
                    <g id="Avaliações" transform="translate(0.000000, 73.000000)">
                        <g id="Estrelas" transform="translate(0.000000, 6.000000)">
                            <path d="M6.99836761,0 C7.11327681,0.21209238 7.22287654,0.412983306 7.3311381,0.614566214 C8.01869399,1.89473229 8.70517072,3.1754606 9.39557561,4.45406972 C9.42708715,4.51245567 9.48462808,4.56699247 9.54324818,4.59891013 C10.985268,5.38448231 12.4291009,6.16668108 13.872502,6.94965833 C13.9035819,6.96648214 13.9337985,6.98490615 13.977483,7.01016348 C13.71175,7.15400917 13.4576721,7.29227575 13.2029466,7.42941787 C11.9786585,8.0886169 10.7537661,8.74673471 9.53111839,9.40909091 C9.47314579,9.44048958 9.421087,9.50069198 9.38918696,9.55989966 C8.60195964,11.019116 7.81779714,12.480019 7.0330303,13.9405328 C7.02456967,13.9562322 7.01464138,13.9711098 6.99711578,14 C6.97397854,13.9599948 6.95476945,13.9285961 6.93728702,13.8962028 C6.16387297,12.462114 5.38981143,11.0283712 4.6189442,9.59289854 C4.56727391,9.49666984 4.50269684,9.42967736 4.40596073,9.37786524 C2.97119285,8.6095061 1.5381948,7.8378168 0.104808244,7.06681948 C0.0739010353,7.05016867 0.0435981575,7.03235014 0,7.0076983 C0.243977016,6.87509731 0.476687577,6.74811867 0.709786637,6.62196177 C1.93903885,5.9566214 3.16785939,5.2905458 4.39866559,4.62805986 C4.49820752,4.57451778 4.56649692,4.50691982 4.62019603,4.40692847 C5.38903443,2.97439668 6.16141248,1.54381109 6.93314304,0.11283626 C6.95157513,0.0785831675 6.97203605,0.0454545455 6.99836761,0" id="Fill-1"></path>
                        </g>
                    </g>
                </g>
            </g>
        </g>
    </g>
</svg>