<?xml version="1.0" encoding="UTF-8" standalone="no"?>
<svg width="34px" height="34px" viewBox="0 0 34 34" version="1.1" xmlns="http://www.w3.org/2000/svg" xmlns:xlink="http://www.w3.org/1999/xlink">
    <!-- Generator: sketchtool 39.1 (31720) - http://www.bohemiancoding.com/sketch -->
    <title>1775E81E-7F47-40E6-8A8E-0D0976268AAE</title>
    <desc>Created with sketchtool.</desc>
    <defs>
        <circle id="path-1" cx="15" cy="15" r="15"></circle>
        <mask id="mask-2" maskContentUnits="userSpaceOnUse" maskUnits="objectBoundingBox" x="-2" y="-2" width="34" height="34">
            <rect x="-2" y="-2" width="34" height="34" fill="white"></rect>
            <use xlink:href="#path-1" fill="black"></use>
        </mask>
    </defs>
    <g id="Symbols" stroke="none" stroke-width="1" fill="none" fill-rule="evenodd" opacity="0.8">
        <g id="RODAPE" transform="translate(-777.000000, -103.000000)">
            <g id="Group-10" transform="translate(572.000000, 105.000000)">
                <g id="Group-9" transform="translate(147.000000, 0.000000)">
                    <g id="Twitter" transform="translate(60.000000, 0.000000)">
                        <use id="Oval-1" stroke="#FFFFFF" mask="url(#mask-2)" stroke-width="4" opacity="0.2" xlink:href="#path-1"></use>
                        <path d="M21.8709143,9.26277143 C21.4475333,9.5339619 20.4754571,9.9280381 19.9960571,9.9280381 L19.9960571,9.92884762 C19.4486571,9.357 18.6779905,9 17.8232952,9 C16.1632857,9 14.8172095,10.3460762 14.8172095,12.0054381 C14.8172095,12.2359905 14.8439238,12.4608762 14.8933048,12.6765333 L14.892819,12.6765333 C12.6410476,12.6174381 10.1783143,11.4888 8.69575238,9.55711429 C7.78422857,11.1348762 8.57302857,12.8896 9.6074381,13.5289619 C9.25335238,13.5556762 8.60152381,13.4881619 8.29471429,13.1888 C8.27415238,14.236 8.77767619,15.6235238 10.6136762,16.1268857 C10.2600762,16.3171238 9.63415238,16.2625619 9.36199048,16.2220857 C9.45751429,17.1060857 10.6954381,18.2617619 12.0491238,18.2617619 C11.5666476,18.8198476 9.75137143,19.8320762 7.71428571,19.5100476 C9.0977619,20.3517905 10.7101714,20.8392857 12.4168095,20.8392857 C17.2666667,20.8392857 21.0330571,16.9087238 20.8303524,12.0598381 C20.8295429,12.0544952 20.8295429,12.0491524 20.8290571,12.0433238 C20.8295429,12.0308571 20.8303524,12.0183905 20.8303524,12.0054381 C20.8303524,11.990381 20.8290571,11.9761333 20.8285714,11.9615619 C21.2700857,11.6596095 21.8624952,11.1254857 22.2857143,10.4224952 C22.0402667,10.5576857 21.3039238,10.8283905 20.6187429,10.895581 C21.0584762,10.6582286 21.709981,9.88092381 21.8709143,9.26277143" id="Fill-1" fill="#FFFFFF"></path>
                    </g>
                </g>
            </g>
        </g>
    </g>
</svg>